<svg xmlns="http://www.w3.org/2000/svg" viewBox="0 0 64 64">
  <!-- Navy background -->
  <circle cx="32" cy="32" r="30" fill="#0f172a"/>
  <!-- Gear/scalloped edge: 8 rounded teeth -->
  <path d="M32 2 Q36 2 38 5 Q40 2 44 3 Q42 7 43 10 Q47 9 49 11 Q48 15 50 18 Q54 17 55 20 Q55 24 57 27 Q60 26 60 30 Q60 34 57 33 Q55 36 55 40 Q54 43 50 42 Q48 45 50 49 Q47 48 44 50 Q43 54 40 53 Q38 56 36 55 Q32 57 32 60 Q28 57 24 55 Q22 56 20 53 Q17 54 15 50 Q12 48 14 45 Q9 43 8 40 Q8 36 11 33 Q6 34 6 30 Q6 26 11 27 Q14 24 15 20 Q12 17 15 14 Q17 11 20 13 Q22 9 24 6 Q28 7 32 2Z" fill="#0f172a"/>
  <!-- Inner ring -->
  <circle cx="32" cy="32" r="20" fill="none" stroke="#06b6d4" stroke-width="3.5"/>
  <!-- V-shaped clock hands -->
  <line x1="32" y1="32" x2="22" y2="18" stroke="#06b6d4" stroke-width="4" stroke-linecap="round"/>
  <line x1="32" y1="32" x2="43" y2="20" stroke="#06b6d4" stroke-width="4" stroke-linecap="round"/>
  <!-- Center dot -->
  <circle cx="32" cy="32" r="3.5" fill="#06b6d4"/>
  <!-- Teal badge with checkmark -->
  <circle cx="49" cy="13" r="8" fill="#06b6d4"/>
  <polyline points="45.5,13 48,15.5 52.5,10.5" fill="none" stroke="white" stroke-width="2" stroke-linecap="round" stroke-linejoin="round"/>
</svg>
